<svg width="23" height="23" viewBox="0 0 23 23" fill="none" xmlns="http://www.w3.org/2000/svg">
<path d="M17.0437 15.8933L12.8204 20.1166C12.6357 20.3015 12.4163 20.4482 12.1749 20.5482C11.9335 20.6483 11.6747 20.6998 11.4134 20.6998C11.1521 20.6998 10.8933 20.6483 10.6519 20.5482C10.4105 20.4482 10.1911 20.3015 10.0064 20.1166L5.7821 15.8933C4.66851 14.7796 3.91015 13.3607 3.60293 11.8161C3.29571 10.2714 3.45343 8.67039 4.05614 7.21537C4.65885 5.76036 5.67948 4.51674 6.98897 3.64178C8.29846 2.76681 9.838 2.2998 11.4129 2.2998C12.9878 2.2998 14.5274 2.76681 15.8368 3.64178C17.1463 4.51674 18.167 5.76036 18.7697 7.21537C19.3724 8.67039 19.5301 10.2714 19.2229 11.8161C18.9157 13.3607 18.1573 14.7796 17.0437 15.8933Z" stroke="#2B2F7E" stroke-width="2" stroke-linecap="round" stroke-linejoin="round"/>
<path d="M14.399 10.2625C14.399 11.0544 14.0844 11.814 13.5244 12.374C12.9644 12.934 12.2048 13.2486 11.4129 13.2486C10.6209 13.2486 9.86137 12.934 9.30137 12.374C8.74136 11.814 8.42676 11.0544 8.42676 10.2625C8.42676 9.47051 8.74136 8.71098 9.30137 8.15098C9.86137 7.59097 10.6209 7.27637 11.4129 7.27637C12.2048 7.27637 12.9644 7.59097 13.5244 8.15098C14.0844 8.71098 14.399 9.47051 14.399 10.2625V10.2625Z" stroke="#2B2F7E" stroke-width="2" stroke-linecap="round" stroke-linejoin="round"/>
</svg>
